<?xml version="1.0" encoding="UTF-8" standalone="no"?>
<svg width="240" height="50" viewBox="0 0 240 50" fill="none" xmlns="http://www.w3.org/2000/svg">
  <path d="M30.1 10.5C37.8 10.5 44 16.7 44 24.5C44 32.3 37.8 38.5 30.1 38.5C22.3 38.5 16.1 32.3 16.1 24.5C16.1 16.7 22.3 10.5 30.1 10.5Z" stroke="#4338CA" stroke-width="3"/>
  <path d="M30.1 4C41.1 4 50 12.9 50 24C50 35.1 41.1 44 30.1 44C19 44 10.1 35.1 10.1 24C10.1 12.9 19 4 30.1 4Z" stroke="#4338CA" stroke-width="2"/>
  <path d="M24 18C25.3 18 26.3 19 26.3 20.3C26.3 21.5 25.3 22.5 24 22.5C22.8 22.5 21.8 21.5 21.8 20.3C21.8 19 22.8 18 24 18Z" fill="#4338CA"/>
  <path d="M36 18C37.3 18 38.3 19 38.3 20.3C38.3 21.5 37.3 22.5 36 22.5C34.8 22.5 33.8 21.5 33.8 20.3C33.8 19 34.8 18 36 18Z" fill="#4338CA"/>
  <path d="M25 30C25 27.2 27.2 25 30 25C32.8 25 35 27.2 35 30" stroke="#4338CA" stroke-width="2" stroke-linecap="round"/>
  <path d="M1 30V10H8C9.7 10 11 10.4 12 11.3C13 12.2 13.5 13.3 13.5 14.7C13.5 16.1 13 17.2 12 18.1C11 19 9.7 19.4 8 19.4H4V30H1Z" fill="#4338CA"/>
  <path d="M60 30V10H63V27.2H71.5V30H60Z" fill="#4338CA"/>
  <path d="M74 30V10H77V30H74Z" fill="#4338CA"/>
  <path d="M90 30.3C87.7 30.3 85.7 29.9 84.2 29C82.6 28.1 81.4 26.9 80.5 25.3C79.7 23.7 79.2 21.9 79.2 19.9C79.2 18 79.7 16.2 80.5 14.6C81.4 13 82.6 11.8 84.2 10.9C85.8 10 87.7 9.6 90 9.6C92.3 9.6 94.2 10 95.8 10.9C97.4 11.8 98.6 13 99.4 14.6C100.3 16.2 100.7 18 100.7 19.9C100.7 21.9 100.3 23.7 99.4 25.3C98.6 26.9 97.4 28.1 95.8 29C94.2 29.9 92.3 30.3 90 30.3ZM90 27.4C91.7 27.4 93.1 27.1 94.3 26.4C95.5 25.7 96.3 24.8 96.9 23.6C97.5 22.4 97.8 21.2 97.8 19.9C97.8 18.6 97.5 17.4 96.9 16.2C96.3 15 95.5 14.1 94.3 13.4C93.1 12.7 91.7 12.4 90 12.4C88.3 12.4 86.9 12.7 85.7 13.4C84.5 14.1 83.6 15 83 16.2C82.4 17.4 82.1 18.6 82.1 19.9C82.1 21.2 82.4 22.4 83 23.6C83.6 24.8 84.5 25.7 85.7 26.4C86.9 27.1 88.3 27.4 90 27.4Z" fill="#4338CA"/>
  <path d="M103 30V10H106V30H103Z" fill="#4338CA"/>
  <path d="M119 30.3C116.7 30.3 114.7 29.9 113.2 29C111.6 28.1 110.4 26.9 109.5 25.3C108.7 23.7 108.2 21.9 108.2 19.9C108.2 18 108.7 16.2 109.5 14.6C110.4 13 111.6 11.8 113.2 10.9C114.8 10 116.7 9.6 119 9.6C121.3 9.6 123.2 10 124.8 10.9C126.4 11.8 127.6 13 128.4 14.6C129.3 16.2 129.7 18 129.7 19.9C129.7 21.9 129.3 23.7 128.4 25.3C127.6 26.9 126.4 28.1 124.8 29C123.2 29.9 121.3 30.3 119 30.3ZM119 27.4C120.7 27.4 122.1 27.1 123.3 26.4C124.5 25.7 125.3 24.8 125.9 23.6C126.5 22.4 126.8 21.2 126.8 19.9C126.8 18.6 126.5 17.4 125.9 16.2C125.3 15 124.5 14.1 123.3 13.4C122.1 12.7 120.7 12.4 119 12.4C117.3 12.4 115.9 12.7 114.7 13.4C113.5 14.1 112.6 15 112 16.2C111.4 17.4 111.1 18.6 111.1 19.9C111.1 21.2 111.4 22.4 112 23.6C112.6 24.8 113.5 25.7 114.7 26.4C115.9 27.1 117.3 27.4 119 27.4Z" fill="#4338CA"/>
  <path d="M142 30L138.2 23.3H135V30H132V10H140C141.7 10 143.1 10.3 144.1 10.9C145.2 11.5 146 12.3 146.5 13.3C147 14.3 147.2 15.3 147.2 16.5C147.2 17.9 146.8 19.2 146 20.2C145.2 21.2 143.9 21.9 142.2 22.2L146.4 30H142ZM135 20.5H140C141.3 20.5 142.3 20.2 143 19.5C143.6 18.8 144 17.9 144 16.7C144 15.6 143.7 14.7 143 14.1C142.3 13.4 141.3 13.1 140 13.1H135V20.5Z" fill="#4338CA"/>
  <path d="M160 30L156.2 23.3H153V30H150V10H158C159.7 10 161.1 10.3 162.1 10.9C163.2 11.5 164 12.3 164.5 13.3C165 14.3 165.2 15.3 165.2 16.5C165.2 17.9 164.8 19.2 164 20.2C163.2 21.2 161.9 21.9 160.2 22.2L164.4 30H160ZM153 20.5H158C159.3 20.5 160.3 20.2 161 19.5C161.6 18.8 162 17.9 162 16.7C162 15.6 161.7 14.7 161 14.1C160.3 13.4 159.3 13.1 158 13.1H153V20.5Z" fill="#4338CA"/>
  <path d="M167 30V10H182V12.8H170V18.7H181V21.3H170V27.2H182V30H167Z" fill="#4338CA"/>
  <path d="M184 30V10H187V27.2H195.5V30H184Z" fill="#4338CA"/>
  <path d="M203 30V12.8H197V10H212V12.8H206V30H203Z" fill="#4338CA"/>
  <path d="M213 30V10H216V30H213Z" fill="#4338CA"/>
  <path d="M226 30.3C223.5 30.3 221.6 29.7 220.1 28.5C218.6 27.2 217.8 25.3 217.8 23C217.8 21.3 218.1 19.9 218.8 18.9C219.5 17.8 220.5 17 221.9 16.5C223.2 15.9 224.9 15.7 226.9 15.7H230.5V15.2C230.5 13.9 230.1 12.9 229.2 12.3C228.4 11.7 227.3 11.4 225.9 11.4C224.7 11.4 223.6 11.6 222.6 12C221.6 12.4 220.7 13 219.9 13.9L218.2 11.8C219.2 10.7 220.4 9.9 221.8 9.4C223.2 8.9 224.6 8.6 226.2 8.6C228.7 8.6 230.6 9.2 232.1 10.4C233.5 11.6 234.2 13.4 234.2 15.8V30H230.5V27.3C229.9 28.3 229 29.1 227.8 29.7C226.6 30.1 225.4 30.3 226 30.3ZM226.8 27.5C228.8 27.5 230.3 26.9 231.3 25.6C232.3 24.3 232.9 22.7 232.9 20.8V18.3H226.9C225 18.3 223.6 18.6 222.7 19.3C221.8 20 221.4 20.9 221.4 22.1C221.4 23.6 221.9 24.6 222.8 25.4C223.8 26.1 225.1 27.5 226.8 27.5Z" fill="#4338CA"/>
  <path d="M236 30V9.7H239.5V16.3C240.2 15.3 241.1 14.5 242.3 13.9C243.5 13.3 244.8 13 246.3 13C248.6 13 250.3 13.7 251.6 15C252.9 16.3 253.5 18.3 253.5 20.8V30H250V21.3C250 19.5 249.6 18.2 248.8 17.3C248 16.4 246.8 15.9 245.2 15.9C243.4 15.9 241.9 16.5 240.8 17.8C239.7 19.1 239.2 20.8 239.2 23V30H236Z" fill="#4338CA"/>
</svg>